<?xml version="1.0" encoding="utf-8"?>
<!-- Generator: Adobe Illustrator 25.0.1, SVG Export Plug-In . SVG Version: 6.00 Build 0)  -->
<svg version="1.1" id="Layer_1" xmlns="http://www.w3.org/2000/svg" xmlns:xlink="http://www.w3.org/1999/xlink" x="0px" y="0px"
	 width="16px" height="16px" viewBox="0 0 16 16" enable-background="new 0 0 16 16" xml:space="preserve">
<g>
	<polygon fill-rule="evenodd" clip-rule="evenodd" fill="#c6afff" fill-opacity="0.7" points="1,16 16,16 16,9 1,9 	"/>
	<polygon fill-rule="evenodd" clip-rule="evenodd" fill="#9AA7B0" fill-opacity="0.8" points="7,1 3,5 7,5 	"/>
	<polygon fill-rule="evenodd" clip-rule="evenodd" fill="#9AA7B0" fill-opacity="0.8" points="8,1 8,6 3,6 3,8 13,8 13,1 	"/>
	<g id="â_x8C__x98__x2F_alphabet_x2F_C">
		<path id="â_x8C__x98__x2F_alphabet_x2F_C_x5F_2" fill-rule="evenodd" clip-rule="evenodd" fill="#231F20" fill-opacity="0.7" d="
			M2,12.5C2,11,2.9,10,4.3,10c0.9,0,1.3,0.3,1.7,0.8l-0.5,0.7C5.1,11.1,4.8,11,4.2,11C3.4,11,3,11.7,3,12.5C3,13.2,3.4,14,4.2,14
			c0.5,0,0.8-0.1,1.2-0.5L6,14.1C5.5,14.7,5.2,15,4.2,15C2.9,15,2,14,2,12.5z"/>
	</g>
	<path fill-rule="evenodd" clip-rule="evenodd" fill="#231F20" fill-opacity="0.7" d="M8.6,12.5c0.7,0,1.1-0.1,1.1-0.8
		S9.3,11,8.6,11H7.7v1.5H8.6z M6.7,10h2c1.2,0,2,0.6,2,1.6c0,1.6-1,1.9-2.1,1.9H7.7V15h-1V10z"/>
	<path fill-rule="evenodd" clip-rule="evenodd" fill="#231F20" fill-opacity="0.7" d="M13.3,12.5c0.7,0,1.1-0.1,1.1-0.8
		S14,11,13.3,11h-0.9v1.5H13.3z M11.4,10h2c1.2,0,2,0.6,2,1.6c0,1.6-1,1.9-2.1,1.9h-0.9V15h-1V10z"/>
</g>
</svg>
